inDegrees=no
num_controls=7
num_derivatives=13
num_iterations=99
num_multipliers=7
num_parameters=0
num_slacks=7
num_states=26
objective=5.432613
objective_accelerations=0.797694
objective_balance=0.024858
objective_effort=0.246641
objective_height=4.264438
objective_ligament=0.098982
solver_duration=1147.744841
status=Solve_Succeeded
success=true
DataType=double
version=3
OpenSimVersion=4.4-2022-07-23-0e9fedc
endheader
time	/jointset/ground_pelvis/pelvis_tilt/value	/jointset/ground_pelvis/pelvis_tx/value	/jointset/ground_pelvis/pelvis_ty/value	/jointset/hip_l/hip_flexion_l/value	/jointset/hip_l/hip_adduction_l/value	/jointset/hip_l/hip_rotation_l/value	/jointset/back/lumbar_extension/value	/jointset/patellofemoral_l/patellar_flexion_l/value	/jointset/knee_l/knee_flexion_l/value	/jointset/knee_l/knee_adduction_l/value	/jointset/knee_l/knee_rotation_l/value	/jointset/ankle_l/ankle_angle_l/value	/jointset/subtalar_l/subtalar_angle_l/value	/jointset/ground_pelvis/pelvis_tilt/speed	/jointset/ground_pelvis/pelvis_tx/speed	/jointset/ground_pelvis/pelvis_ty/speed	/jointset/hip_l/hip_flexion_l/speed	/jointset/hip_l/hip_adduction_l/speed	/jointset/hip_l/hip_rotation_l/speed	/jointset/back/lumbar_extension/speed	/jointset/patellofemoral_l/patellar_flexion_l/speed	/jointset/knee_l/knee_flexion_l/speed	/jointset/knee_l/knee_adduction_l/speed	/jointset/knee_l/knee_rotation_l/speed	/jointset/ankle_l/ankle_angle_l/speed	/jointset/subtalar_l/subtalar_angle_l/speed	/forceset/tau_hip_flexion_l	/forceset/tau_hip_adduction_l	/forceset/tau_hip_rotation_l	/forceset/tau_knee_flexion_l	/forceset/tau_ankle_angle_l	/forceset/tau_subtalar_angle_l	/forceset/tau_lumbar_extension	lambda_cid13_p0	lambda_cid13_p1	lambda_cid13_p2	lambda_cid13_p3	lambda_cid13_p4	lambda_cid13_p5	lambda_cid14_p0	/jointset/ground_pelvis/pelvis_tilt/accel	/jointset/ground_pelvis/pelvis_tx/accel	/jointset/ground_pelvis/pelvis_ty/accel	/jointset/hip_l/hip_flexion_l/accel	/jointset/hip_l/hip_adduction_l/accel	/jointset/hip_l/hip_rotation_l/accel	/jointset/back/lumbar_extension/accel	/jointset/patellofemoral_l/patellar_flexion_l/accel	/jointset/knee_l/knee_flexion_l/accel	/jointset/knee_l/knee_adduction_l/accel	/jointset/knee_l/knee_rotation_l/accel	/jointset/ankle_l/ankle_angle_l/accel	/jointset/subtalar_l/subtalar_angle_l/accel	gamma_cid13_p0	gamma_cid13_p1	gamma_cid13_p2	gamma_cid13_p3	gamma_cid13_p4	gamma_cid13_p5	gamma_cid14_p0
0	0.0514787152596245	0.1062172294312712	0.9041272986759787	0.1266917050730164	-0.359421435882561	-0.2355322712174451	-0.2144974744115991	0.2051547269256753	0.2051547269256735	-0.1523774861322539	-0.1652146116215265	0.09024399430361882	0.09068052548108599	0	0	0	0	0	0	0	0	0	0	0	0	0	0.1078368747294434	-0.04552324954269398	-0.002735485487952804	-0.1894435045349687	0.0543091829666908	-0.05679062809619461	-0.05088603098725399	-13.46907198700575	24.5414014856846	-1.359561987933976	32.61429028127652	-447.8368996242967	-62.12240807594148	-26.25541774659519	-6.393377149372093	-2.971338700804623	-0.9664157201276987	15.94229125054188	-0.0526054363996562	2.734907277007732	-4.27791576241763	8.3582405689271	8.358240568921438	1.972728174638426	-0.6257678682532632	-0.469119888876358	-0.2367710615109952	2.90911831656171e-08	2.855218546704231e-07	-6.051615059751442e-08	8.647671616781289e-10	1.742683674433603e-07	1.397054157953338e-07	3.660713692787892e-08
0.01	0.05116877602679145	0.1060716859188691	0.9040803137486302	0.1274680304000743	-0.3594235536709832	-0.2353924613614622	-0.2147161071049312	0.205561489423954	0.205561489425145	-0.1522809908544217	-0.1652384951659758	0.09022053232683887	0.09066920430442046	-0.06182467380097982	-0.02884595982706058	-0.00937509234145816	0.1545078334716303	-0.0004277495290147629	0.02782762003768563	-0.04337383786370158	0.08096014023559744	0.08096014023561299	0.01918558590363747	-0.004736978854033555	-0.004524276615452977	-0.002214919372667008	0.1087158825023439	-0.05408384778711021	-0.003282059028176783	-0.1952381025618965	0.06354528922070438	-0.05144768571364242	-0.05073084259978928	-10.10646446045634	21.88641308002944	-1.226663095859713	28.50059482131381	-448.1422439441467	-68.11263769687393	-26.25542110782073	-6.052539286060029	-2.801813050765973	-0.9197371684010622	15.09144418627262	-0.03852538893726771	2.786554503847561	-4.314212680164374	7.906039469604658	7.906039469608219	1.874494706545526	-0.3917196954014479	-0.4188522516303313	-0.2064933157081511	9.393996764813305e-09	3.518735076210153e-07	-2.930701525884149e-08	2.343750691413682e-08	-6.243137290836939e-08	9.375489227650145e-08	4.867628764039979e-08
0.02	0.05024548469788141	0.1056455651227699	0.9039402416624338	0.1297667170202977	-0.3594300820904941	-0.2349784022781251	-0.2153578971532157	0.2067660810714481	0.2067660810714421	-0.151996035537933	-0.1653085598540002	0.09015687344301586	0.09063720574591587	-0.1226704192272227	-0.05611545673940612	-0.01861743176951346	0.3044722585744113	-0.0008821261698021817	0.0548498455437	-0.08463147100021864	0.1595658292204918	0.1595658292205497	0.03769200814027074	-0.009236229765239856	-0.008039381380833488	-0.004135476367794046	0.1095948902813847	-0.06264444603016774	-0.003828632595477518	-0.2010327005794813	0.0727813954776584	-0.04610474332837241	-0.05057565421027094	-6.706132507046881	19.22973607099133	-1.099113298691758	24.47574935703052	-447.6925844807529	-73.96074904754484	-26.25527836051653	-6.197591474425767	-2.656046117860936	-0.9398651374471545	15.03360957677198	-0.05793085875407532	2.573828370673495	-3.854674816981408	7.88735031878644	7.887350318786138	1.836895441237842	-0.5782222796876498	-0.2672855188610284	-0.1778985860026074	-1.030318963599049e-08	4.182251605716076e-07	1.902120079831437e-09	4.601024666659552e-08	-2.991311132600991e-07	4.780436875766914e-08	6.074543835292066e-08
0.03	0.04871892359041482	0.1049531157535973	0.9037080776596728	0.1335443020251896	-0.3594412569393984	-0.234298643725358	-0.2164015474711229	0.2087455611220102	0.2087455611209882	-0.1515293780674343	-0.1654231203764212	0.09006133556256579	0.09058696296049899	-0.1823767718742283	-0.08225979343524784	-0.02781649379015143	0.4503707444892124	-0.001358441044735005	0.0810165878535288	-0.1238065540877893	0.2359371348221322	0.2359371348221483	0.0554994950802366	-0.01359273499103727	-0.01108995524022876	-0.005924767367121797	0.1057628479322709	-0.06001192374622882	-0.003286925503805504	-0.1979818538395987	0.07079523605839012	-0.04693723263743858	-0.0475811866317877	-7.311283453250908	19.62145778969353	-1.074997906486231	24.26129843525455	-446.7650532597031	-72.4080611851834	-26.25476289235974	-5.817397272563454	-2.576424601611423	-0.9101562681839568	14.26686894990198	-0.04338615587791794	2.625318515491733	-3.905119281975258	7.453051601859066	7.453051601852914	1.731749854384399	-0.351903484861657	-0.327192770058972	-0.1812634559186602	-1.684046655152302e-08	4.610620480784683e-07	1.619822592049712e-08	5.562820408205828e-08	-4.184951983411153e-07	2.843723792273862e-08	6.90088853242136e-08
0.04	0.04660325093407821	0.1040026635862356	0.9033838771299536	0.1387606520593983	-0.3594573758078161	-0.2333597734785151	-0.2178281874653409	0.2114769604108259	0.2114769604108058	-0.150888830820034	-0.1655787537225145	0.08993464205345222	0.09051846344528418	-0.240492729030332	-0.1077160163772274	-0.03702473716108304	0.5922252644469351	-0.001870930080219729	0.1066721843373754	-0.1612294062686643	0.3099496772640288	0.3099496772639994	0.07246996338046059	-0.01745079385009857	-0.01427050712279859	-0.007786822327302873	0.1019308055809049	-0.05737940146268538	-0.00274521839499758	-0.1949310071035256	0.06880907663830745	-0.04776972194740051	-0.04458671905444094	-7.88246306028407	20.01210646196132	-1.056281533166588	24.12495413694237	-445.1603263165504	-70.72213643024877	-26.2533472618905	-5.879512376246528	-2.518423367087934	-0.9417014075059046	14.22481638535615	-0.06516569086425456	2.471599205477129	-3.504228635643039	7.415597686837635	7.415597686836596	1.669491713289659	-0.4785330063402611	-0.2932811234952288	-0.192451378172953	-2.310640512715306e-08	5.03414095060716e-07	3.014560950347194e-08	6.497905258335618e-08	-5.354399915608797e-07	9.618218277166906e-09	7.71938641771307e-08
0.05	0.04391353119143421	0.1028011638611361	0.9029672353966013	0.1453766515537312	-0.3594786052040894	-0.2321680650686391	-0.2196191574431313	0.2149375898574334	0.2149375898579369	-0.1500822233898571	-0.1657717005854773	0.08977588305881441	0.09043132787114157	-0.2971809720585626	-0.1324573878769244	-0.04632422661879963	0.7302839011405058	-0.002365741342200252	0.1315532032768932	-0.1966492303539828	0.3817861076262102	0.3817861076261882	0.08872996221938033	-0.02106897209069402	-0.017486944606563	-0.009630443801521471	0.09749340855769412	-0.0565802813476723	-0.002100972898080277	-0.1919620142550804	0.06680723005133705	-0.04675610405891732	-0.04122369441371267	-8.328251090042846	19.57289965656425	-0.8982534142119165	23.69761583955655	-443.3986229951082	-70.68050589797568	-26.25044388323928	-5.522933710948625	-2.432999853972147	-0.9272733144128752	13.49277848413832	-0.04033864506855706	2.478920909630399	-3.513555455662267	7.009134527684368	7.009134527685459	1.586111597742203	-0.2930267050103455	-0.3366549224735342	-0.1789229005659761	-2.577564134892895e-08	4.956596088085044e-07	2.083606175688672e-08	6.941555759703686e-08	-5.919279218445014e-07	-1.685494932650457e-09	8.076843601225551e-08
